<svg xmlns="http://www.w3.org/2000/svg" xmlns:xlink="http://www.w3.org/1999/xlink" width="200" zoomAndPan="magnify" viewBox="0 0 150 74.999997" height="100" preserveAspectRatio="xMidYMid meet" version="1.0"><defs><g/><clipPath id="079f02e637"><path d="M 9.15625 24.085938 L 45.203125 24.085938 L 45.203125 44.953125 L 9.15625 44.953125 Z M 9.15625 24.085938 " clip-rule="nonzero"/></clipPath><clipPath id="91cea6c48d"><path d="M 21 38 L 27 38 L 27 44.953125 L 21 44.953125 Z M 21 38 " clip-rule="nonzero"/></clipPath></defs><g clip-path="url(#079f02e637)"><path fill="#ffffff" d="M 9.15625 34.089844 L 45.199219 24.085938 L 33.964844 44.949219 L 23.609375 37.996094 L 45.148438 24.121094 L 22.410156 37.761719 L 21.003906 44.773438 L 18.253906 37.027344 L 45.144531 24.117188 L 17.757812 36.5 Z M 9.15625 34.089844 " fill-opacity="1" fill-rule="evenodd"/></g><g clip-path="url(#91cea6c48d)"><path fill="#ffffff" d="M 21.703125 44.929688 L 26.339844 40.699219 L 23.359375 38.5 Z M 21.703125 44.929688 " fill-opacity="1" fill-rule="evenodd"/></g><path stroke-linecap="round" transform="matrix(0.273222, -0.167495, 0.165266, 0.269585, 9.154441, 47.238958)" fill="none" stroke-linejoin="miter" d="M 1.503266 1.496586 L 25.150735 1.496212 " stroke="#545454" stroke-width="3" stroke-opacity="1" stroke-miterlimit="4"/><path stroke-linecap="round" transform="matrix(0.256367, -0.184458, 0.18468, 0.256675, 9.154237, 55.249648)" fill="none" stroke-linejoin="miter" d="M 1.49895 1.504703 L 37.554202 1.498212 " stroke="#545454" stroke-width="3" stroke-opacity="1" stroke-miterlimit="4"/><path stroke-linecap="round" transform="matrix(0.250038, -0.195039, 0.194485, 0.249328, 16.905527, 56.582022)" fill="none" stroke-linejoin="miter" d="M 1.503562 1.505224 L 42.375512 1.501159 " stroke="#545454" stroke-width="3" stroke-opacity="1" stroke-miterlimit="4"/><g fill="#000000" fill-opacity="1"><g transform="translate(53.462054, 33.994492)"><g><path d="M 0.757812 -8.855469 L 0.757812 0 L 6.78125 0 L 6.78125 -1.214844 L 2.277344 -1.214844 L 2.277344 -3.820312 L 5.515625 -3.820312 L 5.515625 -5.035156 L 2.277344 -5.035156 L 2.277344 -7.640625 L 6.78125 -7.640625 L 6.78125 -8.855469 Z M 0.757812 -8.855469 "/></g></g></g><g fill="#000000" fill-opacity="1"><g transform="translate(60.595749, 33.994492)"><g><path d="M 4.453125 -6.324219 L 1.164062 -6.324219 L 1.164062 -5.285156 L 3.996094 -5.285156 C 4.527344 -5.285156 4.957031 -4.832031 4.957031 -4.300781 L 4.957031 -3.921875 L 2.300781 -3.921875 C 1.367188 -3.921875 0.53125 -3.3125 0.53125 -1.972656 C 0.53125 -0.632812 1.367188 0 2.300781 0 L 6.347656 0 L 6.347656 -4.425781 C 6.347656 -5.464844 5.488281 -6.324219 4.453125 -6.324219 Z M 4.957031 -1.039062 L 2.832031 -1.039062 C 2.351562 -1.039062 1.921875 -1.339844 1.921875 -2.050781 C 1.921875 -2.757812 2.328125 -3.035156 2.832031 -3.035156 L 4.957031 -3.035156 Z M 4.957031 -1.039062 "/></g></g></g><g fill="#000000" fill-opacity="1"><g transform="translate(67.676688, 33.994492)"><g/></g></g><g fill="#000000" fill-opacity="1"><g transform="translate(70.965271, 33.994492)"><g/></g></g><g fill="#000000" fill-opacity="1"><g transform="translate(74.253854, 33.994492)"><g/></g></g><g fill="#000000" fill-opacity="1"><g transform="translate(77.542438, 33.994492)"><g/></g></g><g fill="#000000" fill-opacity="1"><g transform="translate(80.831021, 33.994492)"><g/></g></g><g fill="#000000" fill-opacity="1"><g transform="translate(84.114673, 33.994492)"><g><path d="M 5.867188 0 L 5.867188 -1.039062 L 3.945312 -1.039062 C 2.820312 -1.039062 2.125 -1.59375 1.960938 -2.757812 L 6.628906 -2.757812 C 6.652344 -2.910156 6.679688 -3.0625 6.679688 -3.238281 C 6.679688 -5.1875 5.464844 -6.449219 3.59375 -6.449219 C 1.71875 -6.449219 0.53125 -5.1875 0.53125 -3.238281 C 0.53125 -1.214844 1.746094 0 3.59375 0 Z M 5.261719 -3.644531 L 1.933594 -3.644531 C 2.023438 -4.769531 2.617188 -5.4375 3.59375 -5.4375 C 4.539062 -5.4375 5.148438 -4.769531 5.261719 -3.644531 Z M 5.261719 -3.644531 "/></g></g></g><g fill="#000000" fill-opacity="1"><g transform="translate(84.351831, 43.57471)"><g><path d="M 5.453125 0 L 4.59375 0 L 4.59375 -3.546875 C 4.59375 -4.066406 4.484375 -4.46875 4.265625 -4.75 C 4.046875 -5.03125 3.6875 -5.171875 3.1875 -5.171875 C 2.875 -5.171875 2.585938 -5.097656 2.328125 -4.953125 C 2.078125 -4.804688 1.863281 -4.613281 1.6875 -4.375 C 1.507812 -4.132812 1.375 -3.859375 1.28125 -3.546875 C 1.1875 -3.242188 1.140625 -2.921875 1.140625 -2.578125 L 1.140625 0 L 0.296875 0 L 0.296875 -8.0625 L 1.140625 -8.0625 L 1.140625 -4.3125 C 1.554688 -5.363281 2.285156 -5.890625 3.328125 -5.890625 C 4.742188 -5.890625 5.453125 -5.109375 5.453125 -3.546875 Z M 5.453125 0 "/></g></g><g transform="translate(91.256576, 43.57471)"><g><path d="M -0.015625 -1.5625 C -0.015625 -1.914062 0.0703125 -2.210938 0.25 -2.453125 C 0.4375 -2.703125 0.675781 -2.898438 0.96875 -3.046875 C 1.257812 -3.191406 1.597656 -3.296875 1.984375 -3.359375 C 2.367188 -3.421875 2.753906 -3.453125 3.140625 -3.453125 C 3.296875 -3.453125 3.429688 -3.445312 3.546875 -3.4375 C 3.671875 -3.4375 3.785156 -3.429688 3.890625 -3.421875 C 4.003906 -3.410156 4.117188 -3.398438 4.234375 -3.390625 C 4.347656 -3.378906 4.46875 -3.363281 4.59375 -3.34375 L 4.59375 -3.765625 C 4.59375 -4.046875 4.53125 -4.273438 4.40625 -4.453125 C 4.289062 -4.640625 4.144531 -4.785156 3.96875 -4.890625 C 3.789062 -4.992188 3.601562 -5.066406 3.40625 -5.109375 C 3.21875 -5.148438 3.054688 -5.171875 2.921875 -5.171875 C 2.492188 -5.171875 2.097656 -5.113281 1.734375 -5 C 1.367188 -4.882812 1.03125 -4.726562 0.71875 -4.53125 L 0.34375 -5.171875 C 0.6875 -5.378906 1.070312 -5.550781 1.5 -5.6875 C 1.925781 -5.820312 2.398438 -5.890625 2.921875 -5.890625 C 3.234375 -5.890625 3.539062 -5.847656 3.84375 -5.765625 C 4.144531 -5.679688 4.414062 -5.554688 4.65625 -5.390625 C 4.894531 -5.222656 5.085938 -5.003906 5.234375 -4.734375 C 5.378906 -4.460938 5.453125 -4.140625 5.453125 -3.765625 L 5.453125 0 L 4.59375 0 L 4.59375 -0.96875 C 4.445312 -0.78125 4.28125 -0.613281 4.09375 -0.46875 C 3.90625 -0.332031 3.707031 -0.21875 3.5 -0.125 C 3.300781 -0.0390625 3.097656 0.0195312 2.890625 0.0625 C 2.679688 0.113281 2.484375 0.140625 2.296875 0.140625 C 1.535156 0.140625 0.957031 -0.00390625 0.5625 -0.296875 C 0.175781 -0.585938 -0.015625 -1.007812 -0.015625 -1.5625 Z M 2.296875 -0.578125 C 2.648438 -0.578125 2.96875 -0.628906 3.25 -0.734375 C 3.53125 -0.835938 3.769531 -0.96875 3.96875 -1.125 C 4.164062 -1.28125 4.316406 -1.445312 4.421875 -1.625 C 4.535156 -1.800781 4.59375 -1.960938 4.59375 -2.109375 L 4.59375 -2.65625 C 4.320312 -2.695312 4.054688 -2.71875 3.796875 -2.71875 C 3.546875 -2.726562 3.328125 -2.734375 3.140625 -2.734375 C 2.835938 -2.734375 2.546875 -2.710938 2.265625 -2.671875 C 1.984375 -2.628906 1.738281 -2.5625 1.53125 -2.46875 C 1.320312 -2.375 1.148438 -2.25 1.015625 -2.09375 C 0.890625 -1.945312 0.828125 -1.769531 0.828125 -1.5625 C 0.828125 -1.3125 0.945312 -1.082031 1.1875 -0.875 C 1.425781 -0.675781 1.796875 -0.578125 2.296875 -0.578125 Z M 2.296875 -0.578125 "/></g></g><g transform="translate(98.16132, 43.57471)"><g><path d="M 5.4375 -4.9375 C 5.132812 -5.09375 4.769531 -5.171875 4.34375 -5.171875 C 4 -5.171875 3.691406 -5.097656 3.421875 -4.953125 C 3.148438 -4.804688 2.921875 -4.609375 2.734375 -4.359375 C 2.546875 -4.117188 2.398438 -3.84375 2.296875 -3.53125 C 2.191406 -3.226562 2.140625 -2.910156 2.140625 -2.578125 L 2.140625 -0.71875 L 3.453125 -0.71875 L 3.453125 0 L 0 0 L 0 -0.71875 L 1.296875 -0.71875 L 1.296875 -5.03125 L 0 -5.03125 L 0 -5.75 L 2.140625 -5.75 L 2.140625 -4.3125 C 2.535156 -5.363281 3.269531 -5.890625 4.34375 -5.890625 C 4.644531 -5.890625 4.898438 -5.867188 5.109375 -5.828125 C 5.328125 -5.796875 5.53125 -5.734375 5.71875 -5.640625 Z M 5.4375 -4.9375 "/></g></g><g transform="translate(105.066065, 43.57471)"><g><path d="M 0.84375 -2.578125 C 0.90625 -1.972656 1.128906 -1.488281 1.515625 -1.125 C 1.898438 -0.757812 2.394531 -0.578125 3 -0.578125 C 3.4375 -0.578125 3.820312 -0.664062 4.15625 -0.84375 C 4.5 -1.019531 4.753906 -1.238281 4.921875 -1.5 L 5.515625 -1.09375 C 5.222656 -0.695312 4.875 -0.390625 4.46875 -0.171875 C 4.070312 0.0351562 3.582031 0.140625 3 0.140625 C 2.5625 0.140625 2.15625 0.0664062 1.78125 -0.078125 C 1.414062 -0.222656 1.097656 -0.425781 0.828125 -0.6875 C 0.554688 -0.957031 0.34375 -1.273438 0.1875 -1.640625 C 0.0390625 -2.015625 -0.03125 -2.425781 -0.03125 -2.875 C -0.03125 -3.3125 0.0351562 -3.710938 0.171875 -4.078125 C 0.304688 -4.441406 0.5 -4.757812 0.75 -5.03125 C 1.007812 -5.300781 1.316406 -5.507812 1.671875 -5.65625 C 2.035156 -5.8125 2.441406 -5.890625 2.890625 -5.890625 C 3.378906 -5.890625 3.804688 -5.804688 4.171875 -5.640625 C 4.546875 -5.472656 4.851562 -5.242188 5.09375 -4.953125 C 5.34375 -4.671875 5.523438 -4.328125 5.640625 -3.921875 C 5.753906 -3.515625 5.8125 -3.066406 5.8125 -2.578125 Z M 4.921875 -3.296875 C 4.828125 -3.929688 4.597656 -4.398438 4.234375 -4.703125 C 3.867188 -5.015625 3.421875 -5.171875 2.890625 -5.171875 C 2.617188 -5.171875 2.367188 -5.125 2.140625 -5.03125 C 1.910156 -4.945312 1.707031 -4.820312 1.53125 -4.65625 C 1.351562 -4.488281 1.203125 -4.289062 1.078125 -4.0625 C 0.960938 -3.832031 0.890625 -3.578125 0.859375 -3.296875 Z M 4.921875 -3.296875 "/></g></g></g><g fill="#000000" fill-opacity="1"><g transform="translate(69.024084, 46.660382)"><g><path d="M 12.882812 -17.09375 C 12.933594 -18.132812 12.378906 -18.972656 11.3125 -18.972656 C 9.585938 -18.972656 8.546875 -17.070312 8.546875 -15.292969 C 8.546875 -15.066406 8.574219 -14.863281 8.597656 -14.632812 C 8.269531 -14.609375 7.914062 -14.582031 7.507812 -14.582031 C 4.617188 -14.582031 2.511719 -15.828125 1.269531 -18.414062 C 1.167969 -18.617188 0.988281 -18.71875 0.785156 -18.71875 C 0.582031 -18.71875 0.253906 -18.566406 0.253906 -18.210938 C 0.253906 -18.109375 0.277344 -18.035156 0.304688 -17.957031 C 1.75 -14.988281 4.210938 -13.519531 7.558594 -13.519531 C 8.015625 -13.519531 8.421875 -13.542969 8.800781 -13.570312 C 9.078125 -12.554688 9.535156 -11.515625 10.019531 -10.449219 C 10.753906 -8.828125 11.515625 -7.152344 11.515625 -5.402344 C 11.515625 -2.230469 9.207031 0.203125 5.859375 0.203125 C 3.144531 0.203125 1.066406 -1.574219 1.066406 -4.109375 C 1.066406 -6.519531 2.890625 -8.648438 5.125 -8.648438 C 6.695312 -8.648438 7.734375 -7.277344 7.582031 -5.808594 C 7.558594 -5.476562 7.8125 -5.226562 8.140625 -5.226562 C 8.394531 -5.226562 8.574219 -5.425781 8.625 -5.605469 C 8.675781 -5.808594 8.675781 -5.960938 8.675781 -6.0625 C 8.675781 -8.015625 7.230469 -9.714844 5.125 -9.714844 C 2.382812 -9.714844 0 -7.203125 0 -4.183594 C 0 -1.089844 2.410156 1.269531 5.78125 1.269531 C 9.613281 1.269531 12.582031 -1.421875 12.582031 -5.402344 C 12.582031 -7.355469 11.769531 -9.15625 10.980469 -10.878906 C 10.527344 -11.871094 10.09375 -12.832031 9.839844 -13.773438 C 11.71875 -14.355469 12.808594 -15.597656 12.882812 -17.09375 Z M 11.820312 -17.09375 C 11.820312 -16.6875 11.769531 -15.625 9.664062 -14.835938 C 9.636719 -14.988281 9.636719 -15.167969 9.636719 -15.320312 C 9.636719 -16.460938 10.171875 -17.90625 11.210938 -17.90625 C 11.617188 -17.90625 11.820312 -17.628906 11.820312 -17.09375 Z M 11.820312 -17.09375 "/></g></g></g></svg>