<svg xmlns="http://www.w3.org/2000/svg" xmlns:xlink="http://www.w3.org/1999/xlink" zoomAndPan="magnify" viewBox="0 0 150 74.999997"  preserveAspectRatio="xMidYMid meet" version="1.0"><defs><g/><clipPath id="54f1ef5171"><path d="M 13.648438 25.496094 L 49.023438 25.496094 L 49.023438 45.972656 L 13.648438 45.972656 Z M 13.648438 25.496094 " clip-rule="nonzero"/></clipPath><clipPath id="5bfe12ba5c"><path d="M 25 39 L 31 39 L 31 45.972656 L 25 45.972656 Z M 25 39 " clip-rule="nonzero"/></clipPath></defs><g clip-path="url(#54f1ef5171)"><path fill="#3e98d4" d="M 13.652344 35.316406 L 49.019531 25.496094 L 37.996094 45.96875 L 27.832031 39.144531 L 48.96875 25.53125 L 26.65625 38.914062 L 25.277344 45.796875 L 22.578125 38.195312 L 48.964844 25.527344 L 22.089844 37.675781 Z M 13.652344 35.316406 " fill-opacity="1" fill-rule="evenodd"/></g><g clip-path="url(#5bfe12ba5c)"><path fill="#3e98d4" d="M 25.964844 45.949219 L 30.511719 41.796875 L 27.589844 39.640625 Z M 25.964844 45.949219 " fill-opacity="1" fill-rule="evenodd"/></g><path stroke-linecap="round" transform="matrix(0.268098, -0.164354, 0.162166, 0.264529, 13.720165, 48.215297)" fill="none" stroke-linejoin="miter" d="M 1.501704 1.507213 L 25.149492 1.506786 " stroke="#d9d9d9" stroke-width="3" stroke-opacity="1" stroke-miterlimit="4"/><path stroke-linecap="round" transform="matrix(0.251559, -0.180999, 0.181216, 0.251862, 13.649901, 56.075752)" fill="none" stroke-linejoin="miter" d="M 1.501582 1.50728 L 37.560198 1.504155 " stroke="#d9d9d9" stroke-width="3" stroke-opacity="1" stroke-miterlimit="4"/><path stroke-linecap="round" transform="matrix(0.245349, -0.191382, 0.190838, 0.244652, 21.255822, 57.383123)" fill="none" stroke-linejoin="miter" d="M 1.49655 1.504722 L 42.381152 1.506118 " stroke="#d9d9d9" stroke-width="3" stroke-opacity="1" stroke-miterlimit="4"/><g fill="#ffffff" fill-opacity="1"><g transform="translate(57.126752, 35.21923)"><g><path d="M 0.746094 -8.6875 L 0.746094 0 L 6.652344 0 L 6.652344 -1.191406 L 2.234375 -1.191406 L 2.234375 -3.75 L 5.410156 -3.75 L 5.410156 -4.941406 L 2.234375 -4.941406 L 2.234375 -7.496094 L 6.652344 -7.496094 L 6.652344 -8.6875 Z M 0.746094 -8.6875 "/></g></g></g><g fill="#ffffff" fill-opacity="1"><g transform="translate(64.126658, 35.21923)"><g><path d="M 4.367188 -6.207031 L 1.140625 -6.207031 L 1.140625 -5.1875 L 3.921875 -5.1875 C 4.441406 -5.1875 4.863281 -4.742188 4.863281 -4.21875 L 4.863281 -3.847656 L 2.257812 -3.847656 C 1.339844 -3.847656 0.519531 -3.25 0.519531 -1.9375 C 0.519531 -0.621094 1.339844 0 2.257812 0 L 6.230469 0 L 6.230469 -4.34375 C 6.230469 -5.363281 5.386719 -6.207031 4.367188 -6.207031 Z M 4.863281 -1.019531 L 2.78125 -1.019531 C 2.308594 -1.019531 1.886719 -1.316406 1.886719 -2.011719 C 1.886719 -2.707031 2.285156 -2.980469 2.78125 -2.980469 L 4.863281 -2.980469 Z M 4.863281 -1.019531 "/></g></g></g><g fill="#ffffff" fill-opacity="1"><g transform="translate(71.074797, 35.21923)"><g/></g></g><g fill="#ffffff" fill-opacity="1"><g transform="translate(74.301705, 35.21923)"><g/></g></g><g fill="#ffffff" fill-opacity="1"><g transform="translate(77.528613, 35.21923)"><g/></g></g><g fill="#ffffff" fill-opacity="1"><g transform="translate(80.755521, 35.21923)"><g/></g></g><g fill="#ffffff" fill-opacity="1"><g transform="translate(83.982428, 35.21923)"><g/></g></g><g fill="#ffffff" fill-opacity="1"><g transform="translate(87.204497, 35.21923)"><g><path d="M 5.757812 0 L 5.757812 -1.019531 L 3.871094 -1.019531 C 2.769531 -1.019531 2.085938 -1.5625 1.921875 -2.707031 L 6.503906 -2.707031 C 6.527344 -2.855469 6.554688 -3.003906 6.554688 -3.175781 C 6.554688 -5.089844 5.363281 -6.328125 3.523438 -6.328125 C 1.6875 -6.328125 0.519531 -5.089844 0.519531 -3.175781 C 0.519531 -1.191406 1.710938 0 3.523438 0 Z M 5.164062 -3.574219 L 1.898438 -3.574219 C 1.984375 -4.679688 2.570312 -5.335938 3.523438 -5.335938 C 4.457031 -5.335938 5.050781 -4.679688 5.164062 -3.574219 Z M 5.164062 -3.574219 "/></g></g></g><g fill="#ffffff" fill-opacity="1"><g transform="translate(87.437207, 44.619769)"><g><path d="M 5.34375 0 L 4.515625 0 L 4.515625 -3.484375 C 4.515625 -3.984375 4.40625 -4.375 4.1875 -4.65625 C 3.96875 -4.9375 3.613281 -5.078125 3.125 -5.078125 C 2.820312 -5.078125 2.546875 -5.003906 2.296875 -4.859375 C 2.046875 -4.722656 1.832031 -4.535156 1.65625 -4.296875 C 1.488281 -4.054688 1.359375 -3.785156 1.265625 -3.484375 C 1.171875 -3.179688 1.125 -2.863281 1.125 -2.53125 L 1.125 0 L 0.296875 0 L 0.296875 -7.90625 L 1.125 -7.90625 L 1.125 -4.234375 C 1.519531 -5.265625 2.234375 -5.78125 3.265625 -5.78125 C 4.648438 -5.78125 5.34375 -5.015625 5.34375 -3.484375 Z M 5.34375 0 "/></g></g><g transform="translate(94.212457, 44.619769)"><g><path d="M -0.015625 -1.53125 C -0.015625 -1.882812 0.0703125 -2.179688 0.25 -2.421875 C 0.425781 -2.660156 0.660156 -2.847656 0.953125 -2.984375 C 1.242188 -3.128906 1.578125 -3.234375 1.953125 -3.296875 C 2.328125 -3.359375 2.707031 -3.390625 3.09375 -3.390625 C 3.238281 -3.390625 3.367188 -3.382812 3.484375 -3.375 C 3.609375 -3.375 3.722656 -3.367188 3.828125 -3.359375 C 3.929688 -3.347656 4.035156 -3.335938 4.140625 -3.328125 C 4.253906 -3.316406 4.378906 -3.304688 4.515625 -3.296875 L 4.515625 -3.6875 C 4.515625 -3.96875 4.453125 -4.195312 4.328125 -4.375 C 4.210938 -4.550781 4.066406 -4.691406 3.890625 -4.796875 C 3.722656 -4.898438 3.539062 -4.972656 3.34375 -5.015625 C 3.15625 -5.054688 2.992188 -5.078125 2.859375 -5.078125 C 2.441406 -5.078125 2.054688 -5.019531 1.703125 -4.90625 C 1.347656 -4.789062 1.015625 -4.640625 0.703125 -4.453125 L 0.328125 -5.078125 C 0.671875 -5.285156 1.050781 -5.453125 1.46875 -5.578125 C 1.894531 -5.710938 2.359375 -5.78125 2.859375 -5.78125 C 3.171875 -5.78125 3.472656 -5.738281 3.765625 -5.65625 C 4.066406 -5.582031 4.332031 -5.460938 4.5625 -5.296875 C 4.800781 -5.128906 4.988281 -4.910156 5.125 -4.640625 C 5.269531 -4.378906 5.34375 -4.0625 5.34375 -3.6875 L 5.34375 0 L 4.515625 0 L 4.515625 -0.9375 C 4.367188 -0.757812 4.203125 -0.601562 4.015625 -0.46875 C 3.835938 -0.332031 3.644531 -0.21875 3.4375 -0.125 C 3.238281 -0.0390625 3.035156 0.0195312 2.828125 0.0625 C 2.628906 0.113281 2.441406 0.140625 2.265625 0.140625 C 1.515625 0.140625 0.945312 0 0.5625 -0.28125 C 0.175781 -0.570312 -0.015625 -0.988281 -0.015625 -1.53125 Z M 2.265625 -0.5625 C 2.609375 -0.5625 2.914062 -0.613281 3.1875 -0.71875 C 3.46875 -0.820312 3.703125 -0.953125 3.890625 -1.109375 C 4.085938 -1.265625 4.238281 -1.425781 4.34375 -1.59375 C 4.457031 -1.769531 4.515625 -1.929688 4.515625 -2.078125 L 4.515625 -2.609375 C 4.242188 -2.648438 3.984375 -2.671875 3.734375 -2.671875 C 3.484375 -2.671875 3.269531 -2.671875 3.09375 -2.671875 C 2.789062 -2.671875 2.5 -2.648438 2.21875 -2.609375 C 1.945312 -2.578125 1.707031 -2.515625 1.5 -2.421875 C 1.289062 -2.328125 1.125 -2.207031 1 -2.0625 C 0.875 -1.914062 0.8125 -1.738281 0.8125 -1.53125 C 0.8125 -1.289062 0.925781 -1.066406 1.15625 -0.859375 C 1.394531 -0.660156 1.765625 -0.5625 2.265625 -0.5625 Z M 2.265625 -0.5625 "/></g></g><g transform="translate(100.987707, 44.619769)"><g><path d="M 5.34375 -4.859375 C 5.039062 -5.003906 4.679688 -5.078125 4.265625 -5.078125 C 3.929688 -5.078125 3.628906 -5.003906 3.359375 -4.859375 C 3.097656 -4.710938 2.875 -4.519531 2.6875 -4.28125 C 2.5 -4.050781 2.351562 -3.78125 2.25 -3.46875 C 2.15625 -3.164062 2.109375 -2.851562 2.109375 -2.53125 L 2.109375 -0.703125 L 3.390625 -0.703125 L 3.390625 0 L 0 0 L 0 -0.703125 L 1.28125 -0.703125 L 1.28125 -4.9375 L 0 -4.9375 L 0 -5.640625 L 2.109375 -5.640625 L 2.109375 -4.234375 C 2.484375 -5.265625 3.203125 -5.78125 4.265625 -5.78125 C 4.554688 -5.78125 4.804688 -5.757812 5.015625 -5.71875 C 5.234375 -5.6875 5.429688 -5.625 5.609375 -5.53125 Z M 5.34375 -4.859375 "/></g></g><g transform="translate(107.762957, 44.619769)"><g><path d="M 0.828125 -2.53125 C 0.890625 -1.9375 1.109375 -1.457031 1.484375 -1.09375 C 1.859375 -0.738281 2.347656 -0.5625 2.953125 -0.5625 C 3.378906 -0.5625 3.753906 -0.648438 4.078125 -0.828125 C 4.410156 -1.003906 4.660156 -1.222656 4.828125 -1.484375 L 5.40625 -1.078125 C 5.125 -0.679688 4.785156 -0.378906 4.390625 -0.171875 C 4.003906 0.0351562 3.523438 0.140625 2.953125 0.140625 C 2.515625 0.140625 2.113281 0.0664062 1.75 -0.078125 C 1.382812 -0.222656 1.066406 -0.425781 0.796875 -0.6875 C 0.535156 -0.945312 0.332031 -1.253906 0.1875 -1.609375 C 0.0390625 -1.972656 -0.03125 -2.375 -0.03125 -2.8125 C -0.03125 -3.238281 0.0351562 -3.632812 0.171875 -4 C 0.304688 -4.363281 0.492188 -4.675781 0.734375 -4.9375 C 0.984375 -5.207031 1.285156 -5.414062 1.640625 -5.5625 C 2.003906 -5.707031 2.40625 -5.78125 2.84375 -5.78125 C 3.320312 -5.78125 3.738281 -5.695312 4.09375 -5.53125 C 4.457031 -5.375 4.757812 -5.148438 5 -4.859375 C 5.238281 -4.578125 5.414062 -4.238281 5.53125 -3.84375 C 5.644531 -3.445312 5.703125 -3.007812 5.703125 -2.53125 Z M 4.828125 -3.234375 C 4.734375 -3.859375 4.507812 -4.320312 4.15625 -4.625 C 3.800781 -4.925781 3.363281 -5.078125 2.84375 -5.078125 C 2.570312 -5.078125 2.320312 -5.03125 2.09375 -4.9375 C 1.875 -4.851562 1.675781 -4.726562 1.5 -4.5625 C 1.320312 -4.40625 1.175781 -4.210938 1.0625 -3.984375 C 0.945312 -3.753906 0.875 -3.503906 0.84375 -3.234375 Z M 4.828125 -3.234375 "/></g></g></g><g fill="#ffffff" fill-opacity="1"><g transform="translate(72.396928, 47.647572)"><g><path d="M 12.644531 -16.773438 C 12.691406 -17.792969 12.144531 -18.617188 11.101562 -18.617188 C 9.40625 -18.617188 8.386719 -16.75 8.386719 -15.007812 C 8.386719 -14.78125 8.410156 -14.585938 8.4375 -14.359375 C 8.113281 -14.335938 7.765625 -14.308594 7.367188 -14.308594 C 4.53125 -14.308594 2.464844 -15.53125 1.246094 -18.066406 C 1.144531 -18.265625 0.96875 -18.367188 0.773438 -18.367188 C 0.574219 -18.367188 0.25 -18.21875 0.25 -17.871094 C 0.25 -17.769531 0.273438 -17.695312 0.296875 -17.621094 C 1.71875 -14.707031 4.132812 -13.265625 7.417969 -13.265625 C 7.863281 -13.265625 8.261719 -13.289062 8.636719 -13.316406 C 8.910156 -12.320312 9.359375 -11.300781 9.832031 -10.253906 C 10.550781 -8.660156 11.300781 -7.019531 11.300781 -5.300781 C 11.300781 -2.191406 9.035156 0.199219 5.75 0.199219 C 3.085938 0.199219 1.046875 -1.542969 1.046875 -4.03125 C 1.046875 -6.394531 2.835938 -8.488281 5.027344 -8.488281 C 6.570312 -8.488281 7.589844 -7.144531 7.441406 -5.699219 C 7.417969 -5.375 7.664062 -5.125 7.988281 -5.125 C 8.238281 -5.125 8.410156 -5.324219 8.460938 -5.5 C 8.511719 -5.699219 8.511719 -5.847656 8.511719 -5.949219 C 8.511719 -7.863281 7.09375 -9.53125 5.027344 -9.53125 C 2.339844 -9.53125 0 -7.066406 0 -4.105469 C 0 -1.070312 2.363281 1.246094 5.675781 1.246094 C 9.433594 1.246094 12.34375 -1.394531 12.34375 -5.300781 C 12.34375 -7.21875 11.546875 -8.984375 10.777344 -10.675781 C 10.328125 -11.648438 9.90625 -12.59375 9.65625 -13.515625 C 11.496094 -14.085938 12.566406 -15.304688 12.644531 -16.773438 Z M 11.597656 -16.773438 C 11.597656 -16.375 11.546875 -15.332031 9.480469 -14.558594 C 9.457031 -14.707031 9.457031 -14.882812 9.457031 -15.03125 C 9.457031 -16.152344 9.980469 -17.570312 11 -17.570312 C 11.398438 -17.570312 11.597656 -17.296875 11.597656 -16.773438 Z M 11.597656 -16.773438 "/></g></g></g></svg>